<svg xmlns="http://www.w3.org/2000/svg" id="icon" width="32" height="32" viewBox="0 0 32 32"><defs><style>.cls-1{fill:none}</style></defs><rect width="7" height="2" x="19" y="10"/><rect width="7" height="2" x="19" y="15"/><rect width="7" height="2" x="19" y="20"/><rect width="7" height="2" x="6" y="10"/><rect width="7" height="2" x="6" y="15"/><rect width="7" height="2" x="6" y="20"/><path d="M28,5H4A2.002,2.002,0,0,0,2,7V25a2.002,2.002,0,0,0,2,2H28a2.002,2.002,0,0,0,2-2V7A2.002,2.002,0,0,0,28,5ZM4,7H15V25H4ZM17,25V7H28V25Z"/><rect id="_Transparent_Rectangle_" width="32" height="32" class="cls-1" data-name="&lt;Transparent Rectangle&gt;"/></svg>