<svg xmlns="http://www.w3.org/2000/svg" id="icon" width="32" height="32" viewBox="0 0 32 32"><defs><style>.cls-1{fill:none}</style></defs><rect width="26" height="2" x="3" y="27" transform="translate(32 56) rotate(180)"/><rect width="2" height="2" x="27" y="23" transform="translate(56 48) rotate(180)"/><rect width="2" height="2" x="27" y="19" transform="translate(56 40) rotate(180)"/><rect width="2" height="2" x="27" y="15" transform="translate(56 32) rotate(180)"/><rect width="2" height="2" x="27" y="11" transform="translate(56 24) rotate(180)"/><rect width="2" height="2" x="27" y="7" transform="translate(56 16) rotate(180)"/><rect width="2" height="2" x="27" y="3" transform="translate(56 8) rotate(180)"/><rect width="2" height="2" x="23" y="3" transform="translate(48 8) rotate(180)"/><rect width="2" height="2" x="19" y="3" transform="translate(40 8) rotate(180)"/><rect width="2" height="2" x="15" y="3" transform="translate(32 8) rotate(180)"/><rect width="2" height="2" x="7" y="3" transform="translate(16 8) rotate(180)"/><rect width="2" height="2" x="11" y="3" transform="translate(24 8) rotate(180)"/><rect width="2" height="2" x="3" y="23" transform="translate(8 48) rotate(180)"/><rect width="2" height="2" x="3" y="19" transform="translate(8 40) rotate(180)"/><rect width="2" height="2" x="3" y="15" transform="translate(8 32) rotate(180)"/><rect width="2" height="2" x="3" y="11" transform="translate(8 24) rotate(180)"/><rect width="2" height="2" x="3" y="7" transform="translate(8 16) rotate(180)"/><rect width="2" height="2" x="3" y="3" transform="translate(8 8) rotate(180)"/><rect width="10" height="2" x="8" y="10"/><rect width="6" height="2" x="8" y="15"/><rect id="_Transparent_Rectangle_" width="32" height="32" class="cls-1" data-name="&lt;Transparent Rectangle&gt;"/></svg>