<svg xmlns="http://www.w3.org/2000/svg" id="icon" width="32" height="32" viewBox="0 0 32 32"><defs><style>.cls-1{fill:none}</style></defs><rect width="26" height="2" x="15" y="15" transform="translate(44 -12) rotate(90)"/><rect width="2" height="2" x="23" y="3" transform="translate(28 -20) rotate(90)"/><rect width="2" height="2" x="19" y="3" transform="translate(24 -16) rotate(90)"/><rect width="2" height="2" x="15" y="3" transform="translate(20 -12) rotate(90)"/><rect width="2" height="2" x="11" y="3" transform="translate(16 -8) rotate(90)"/><rect width="2" height="2" x="7" y="3" transform="translate(12 -4) rotate(90)"/><rect width="2" height="2" x="3" y="3" transform="translate(8 0) rotate(90)"/><rect width="2" height="2" x="3" y="7" transform="translate(12 4) rotate(90)"/><rect width="2" height="2" x="3" y="11" transform="translate(16 8) rotate(90)"/><rect width="2" height="2" x="3" y="15" transform="translate(20 12) rotate(90)"/><rect width="2" height="2" x="3" y="23" transform="translate(28 20) rotate(90)"/><rect width="2" height="2" x="3" y="19" transform="translate(24 16) rotate(90)"/><rect width="2" height="2" x="23" y="27" transform="translate(52 4) rotate(90)"/><rect width="2" height="2" x="19" y="27" transform="translate(48 8) rotate(90)"/><rect width="2" height="2" x="15" y="27" transform="translate(44 12) rotate(90)"/><rect width="2" height="2" x="11" y="27" transform="translate(40 16) rotate(90)"/><rect width="2" height="2" x="7" y="27" transform="translate(36 20) rotate(90)"/><rect width="2" height="2" x="3" y="27" transform="translate(32 24) rotate(90)"/><rect width="10" height="2" x="8" y="10"/><rect width="6" height="2" x="8" y="15"/><rect id="_Transparent_Rectangle_" width="32" height="32" class="cls-1" data-name="&lt;Transparent Rectangle&gt;"/></svg>