<svg xmlns="http://www.w3.org/2000/svg" id="icon" width="32" height="32" viewBox="0 0 32 32"><defs><style>.cls-1{fill:none}</style></defs><rect width="26" height="2" x="3" y="3"/><rect width="2" height="2" x="3" y="7"/><rect width="2" height="2" x="3" y="11"/><rect width="2" height="2" x="3" y="15"/><rect width="2" height="2" x="3" y="19"/><rect width="2" height="2" x="3" y="23"/><rect width="2" height="2" x="3" y="27"/><rect width="2" height="2" x="7" y="27"/><rect width="2" height="2" x="11" y="27"/><rect width="2" height="2" x="15" y="27"/><rect width="2" height="2" x="23" y="27"/><rect width="2" height="2" x="19" y="27"/><rect width="2" height="2" x="27" y="7"/><rect width="2" height="2" x="27" y="11"/><rect width="2" height="2" x="27" y="15"/><rect width="2" height="2" x="27" y="19"/><rect width="2" height="2" x="27" y="23"/><rect width="2" height="2" x="27" y="27"/><rect width="10" height="2" x="8" y="10"/><rect width="6" height="2" x="8" y="15"/><rect id="_Transparent_Rectangle_" width="32" height="32" class="cls-1" data-name="&lt;Transparent Rectangle&gt;"/></svg>