<svg xmlns="http://www.w3.org/2000/svg" id="icon" width="32" height="32" viewBox="0 0 32 32"><defs><style>.cls-1{fill:none}</style></defs><polygon points="14 8 10 8 10 4 8 4 8 8 4 8 4 10 8 10 8 14 10 14 10 10 14 10 14 8"/><rect width="10" height="2" x="4" y="19"/><rect width="10" height="2" x="4" y="24"/><rect width="10" height="2" x="18" y="8"/><polygon points="24.41 22 28 18.41 26.59 17 23 20.59 19.41 17 18 18.41 21.59 22 18 25.59 19.41 27 23 23.41 26.59 27 28 25.59 24.41 22"/><rect id="_Transparent_Rectangle_" width="32" height="32" class="cls-1" data-name="&lt;Transparent Rectangle&gt;"/></svg>