<svg xmlns="http://www.w3.org/2000/svg" id="icon" width="32" height="32" viewBox="0 0 32 32"><defs><style>.cls-1{fill:none}</style></defs><polygon points="4 20 4 22 8.586 22 2 28.586 3.414 30 10 23.414 10 28 12 28 12 20 4 20"/><rect width="2" height="5" x="24" y="21"/><rect width="2" height="10" x="20" y="16"/><rect width="2" height="8" x="16" y="18"/><path d="M28,2H4A2.002,2.002,0,0,0,2,4V16H4V13H28.001l.001,15H16v2H28a2.0027,2.0027,0,0,0,2-2V4A2.0023,2.0023,0,0,0,28,2ZM12,11H4V4h8Zm2,0V4H28l.0007,7Z"/><rect id="_Transparent_Rectangle_" width="32" height="32" class="cls-1" data-name="&lt;Transparent Rectangle&gt;"/></svg>