<svg xmlns="http://www.w3.org/2000/svg" id="icon" width="32" height="32" viewBox="0 0 32 32"><defs><style>.cls-1{fill:none}</style></defs><polygon points="4 20 4 22 8.586 22 2 28.586 3.414 30 10 23.414 10 28 12 28 12 20 4 20"/><rect width="4" height="2" x="20" y="22"/><rect width="4" height="2" x="16" y="18"/><rect width="4" height="2" x="20" y="14"/><rect width="4" height="2" x="8" y="14"/><path d="M27,3H5A2.0027,2.0027,0,0,0,3,5V16H5V11H27V27H16v2H27a2.0027,2.0027,0,0,0,2-2V5A2.0027,2.0027,0,0,0,27,3Zm0,6H5V5H27Z"/><rect id="_Transparent_Rectangle_" width="32" height="32" class="cls-1" data-name="&lt;Transparent Rectangle&gt;"/></svg>