<svg xmlns="http://www.w3.org/2000/svg" id="icon" width="32" height="32" viewBox="0 0 32 32"><defs><style>.cls-1{fill:none}</style></defs><title>data-table</title><rect width="4" height="2" x="8" y="18"/><rect width="4" height="2" x="14" y="18"/><rect width="4" height="2" x="8" y="14"/><rect width="4" height="2" x="14" y="22"/><rect width="4" height="2" x="20" y="14"/><rect width="4" height="2" x="20" y="22"/><path d="M27,3H5A2.0025,2.0025,0,0,0,3,5V27a2.0025,2.0025,0,0,0,2,2H27a2.0025,2.0025,0,0,0,2-2V5A2.0025,2.0025,0,0,0,27,3Zm0,2,0,4H5V5ZM5,27V11H27l0,16Z"/><rect id="_Transparent_Rectangle_" width="32" height="32" class="cls-1" data-name="&lt;Transparent Rectangle&gt;"/></svg>