<svg xmlns="http://www.w3.org/2000/svg" id="icon" width="32" height="32" viewBox="0 0 32 32"><defs><style>.cls-1{fill:none}</style></defs><title>direction--sharp-turn--filled</title><path d="M28,2H4A2,2,0,0,0,2,4V28a2,2,0,0,0,2,2H28a2,2,0,0,0,2-2V4A2,2,0,0,0,28,2ZM26,26H16V24h6.5859L8,9.4141V26H6V7a1,1,0,0,1,1.707-.707L24,22.5859V16h2Z"/><path id="inner-path" d="M26,26H16V24h6.5859L8,9.4141V26H6V7a1,1,0,0,1,1.707-.707L24,22.5859V16h2Z" class="cls-1"/><rect id="_Transparent_Rectangle_" width="32" height="32" class="cls-1" data-name="&lt;Transparent Rectangle&gt;"/></svg>