<svg xmlns="http://www.w3.org/2000/svg" id="icon" width="32" height="32" viewBox="0 0 32 32"><defs><style>.cls-1{fill:none}</style></defs><rect width="2" height="10" x="7" y="11"/><rect width="2" height="10" x="11" y="11"/><rect width="2" height="10" x="15" y="11"/><rect width="2" height="10" x="19" y="11"/><rect width="2" height="10" x="23" y="11"/><path d="M28,26H4a2.0023,2.0023,0,0,1-2-2V8A2.0023,2.0023,0,0,1,4,6H28a2.0023,2.0023,0,0,1,2,2V24A2.0023,2.0023,0,0,1,28,26ZM4,8V24H28V8Z"/><rect id="_Transparent_Rectangle_" width="32" height="32" class="cls-1" data-name="&lt;Transparent Rectangle&gt;"/></svg>