<svg xmlns="http://www.w3.org/2000/svg" id="Layer_1" width="32" height="32" data-name="Layer 1" viewBox="0 0 32 32"><defs><style>.cls-1{fill-rule:evenodd}.cls-2{fill:none}</style></defs><path d="M26,6a2,2,0,0,0-2-2H8A2,2,0,0,0,6,6V26a2,2,0,0,0,2,2h8V26H8V6H24v6h2Z" class="cls-1" transform="translate(0 0)"/><rect width="6" height="2" x="10" y="18"/><rect width="12" height="2" x="10" y="14"/><path d="M22,10v2H10V10Z" class="cls-1" transform="translate(0 0)"/><path d="M25,23l5,2V23l-5-2.5V18a1,1,0,0,0-2,0v2.5L18,23v2l5-2v3.5L21,28v1l3-1,3,1V28l-2-1.5Z" class="cls-1" transform="translate(0 0)"/><rect id="_Transparent_Rectangle_" width="32" height="32" class="cls-2" data-name="&lt;Transparent Rectangle&gt;"/></svg>