<svg xmlns="http://www.w3.org/2000/svg" id="icon" width="32" height="32" viewBox="0 0 32 32"><defs><style>.cls-1{fill:none}</style></defs><polygon points="13 15 13 23 13 23 20 19 13 15"/><path d="M26,28H6a2.0021,2.0021,0,0,1-2-2V12a2.0021,2.0021,0,0,1,2-2H26a2.0021,2.0021,0,0,1,2,2V26A2.0021,2.0021,0,0,1,26,28ZM6,12V26H26V12Z"/><rect width="20" height="2" x="6" y="6"/><rect width="16" height="2" x="8" y="2"/><rect id="_Transparent_Rectangle_" width="32" height="32" class="cls-1" data-name="&lt;Transparent Rectangle&gt;"/></svg>