<svg xmlns="http://www.w3.org/2000/svg" id="icon" width="32" height="32" viewBox="0 0 32 32"><defs><style>.cls-1{fill:none}</style></defs><path d="M7,12H4a2.0023,2.0023,0,0,1-2-2V6A2.0023,2.0023,0,0,1,4,4H7V6H4v4H7Z"/><rect width="6" height="2" x="9" y="10"/><rect width="6" height="2" x="17" y="10"/><path d="M28,12H25V10h3V6H25V4h3a2.0023,2.0023,0,0,1,2,2v4A2.0023,2.0023,0,0,1,28,12Z"/><rect width="6" height="2" x="17" y="4"/><rect width="6" height="2" x="9" y="4"/><path d="M28,28H4a2.0023,2.0023,0,0,1-2-2V22a2.0023,2.0023,0,0,1,2-2H28a2.0023,2.0023,0,0,1,2,2v4A2.0023,2.0023,0,0,1,28,28ZM4,22v4H28V22Z"/><rect width="28" height="2" x="2" y="15"/><rect id="_Transparent_Rectangle_" width="32" height="32" class="cls-1" data-name="&lt;Transparent Rectangle&gt;"/></svg>