<svg xmlns="http://www.w3.org/2000/svg" id="Layer_1" width="32" height="32" data-name="Layer 1" viewBox="0 0 32 32"><defs><style>.cls-1{fill:#171717}.cls-2{fill:none}</style></defs><path d="M16,20a4,4,0,1,1,4-4A4.0045,4.0045,0,0,1,16,20Zm0-6a2,2,0,1,0,2,2A2.0021,2.0021,0,0,0,16,14Z" class="cls-1" transform="translate(0 0)"/><path d="M24,24H8a2.0021,2.0021,0,0,1-2-2V10A2.0021,2.0021,0,0,1,8,8H24a2.0021,2.0021,0,0,1,2,2V22A2.0021,2.0021,0,0,1,24,24ZM8,10V22H24V10Z" class="cls-1" transform="translate(0 0)"/><path d="M28,28H4a2.0021,2.0021,0,0,1-2-2V6A2.0021,2.0021,0,0,1,4,4H28a2.0021,2.0021,0,0,1,2,2V26A2.0021,2.0021,0,0,1,28,28ZM4,6V26H28V6Z" class="cls-1" transform="translate(0 0)"/><rect id="_Transparent_Rectangle_" width="32" height="32" class="cls-2" data-name="&lt;Transparent Rectangle&gt;" transform="translate(32 32) rotate(-180)"/></svg>