<svg xmlns="http://www.w3.org/2000/svg" id="icon" width="32" height="32" viewBox="0 0 32 32"><defs><style>.cls-1{fill:none}</style></defs><rect width="2" height="2" x="16" y="14"/><rect width="2" height="2" x="20" y="14"/><rect width="2" height="2" x="24" y="14"/><rect width="2" height="2" x="16" y="18"/><rect width="2" height="2" x="20" y="18"/><rect width="2" height="2" x="24" y="18"/><rect width="2" height="2" x="16" y="22"/><rect width="2" height="2" x="20" y="22"/><rect width="2" height="2" x="24" y="22"/><rect width="10" height="2" x="16" y="10"/><path d="M28,6H14V5a2.0025,2.0025,0,0,0-2-2H8A2.0025,2.0025,0,0,0,6,5V6H4A2.0025,2.0025,0,0,0,2,8V26a2.0025,2.0025,0,0,0,2,2H28a2.0025,2.0025,0,0,0,2-2V8A2.0025,2.0025,0,0,0,28,6ZM8,5h4V22H8ZM28,26H4V8H6V22a2.0025,2.0025,0,0,0,2,2h4a2.0025,2.0025,0,0,0,2-2V8H28Z"/><rect id="_Transparent_Rectangle_" width="32" height="32" class="cls-1" data-name="&lt;Transparent Rectangle&gt;"/></svg>