<svg xmlns="http://www.w3.org/2000/svg" id="icon" width="32" height="32" viewBox="0 0 32 32"><defs><style>.cls-1{fill:none}</style></defs><title>star--review</title><rect width="8" height="2" x="18" y="26"/><rect width="12" height="2" x="18" y="22"/><rect width="12" height="2" x="18" y="18"/><polygon points="20.549 11.217 16 2 11.451 11.217 1.28 12.695 8.64 19.87 6.902 30 14 26.269 14 24.009 9.559 26.344 10.611 20.208 10.789 19.171 10.036 18.438 5.578 14.091 11.739 13.196 12.779 13.045 13.245 12.102 16 6.519 18.755 12.102 19.221 13.045 20.261 13.196 27.715 14.281 28 12.3 20.549 11.217"/><rect id="_Transparent_Rectangle_" width="32" height="32" class="cls-1" data-name="&lt;Transparent Rectangle&gt;"/></svg>