<svg xmlns="http://www.w3.org/2000/svg" id="Layer_1" width="32" height="32" data-name="Layer 1" viewBox="0 0 32 32"><defs><style>.cls-1{fill:none}</style></defs><rect width="7" height="2" x="20" y="4"/><rect width="10" height="2" x="20" y="10"/><rect width="7" height="2" x="20" y="16"/><path d="M12,23a3,3,0,0,1-6,0Z" transform="translate(0 0)"/><path d="M30,22H15.9192A7.0107,7.0107,0,0,0,14,18.1108V7A5,5,0,0,0,4,7V18.1108A6.9946,6.9946,0,1,0,15.92,24H30ZM9,28a4.9933,4.9933,0,0,1-3.332-8.7183L6,18.9834V7a3,3,0,0,1,6,0V18.9834l.332.2983A4.9933,4.9933,0,0,1,9,28Z" transform="translate(0 0)"/><rect id="_Transparent_Rectangle_" width="32" height="32" class="cls-1" data-name="&lt;Transparent Rectangle&gt;"/></svg>