<svg xmlns="http://www.w3.org/2000/svg" id="icon" width="32" height="32" viewBox="0 0 32 32"><defs><style>.cls-1{fill:none}</style></defs><rect width="4" height="2" x="26" y="13"/><rect width="4" height="2" x="23.121" y="5.879" transform="translate(2.4937 19.7783) rotate(-45)"/><rect width="2" height="4" x="24.121" y="19.121" transform="translate(-7.5773 23.9496) rotate(-45)"/><rect width="2" height="4" x="17" y="2"/><path d="M18,8a6.0365,6.0365,0,0,0-1,.09v2.0518A3.9567,3.9567,0,0,1,18,10a4,4,0,0,1,0,8v2A6,6,0,0,0,18,8Z"/><path d="M10,20.1839V7H8V20.1839a3,3,0,1,0,2,0Z"/><path d="M9,30A6.9931,6.9931,0,0,1,4,18.1108V7A5,5,0,0,1,14,7V18.1108A6.9931,6.9931,0,0,1,9,30ZM9,4A3.0033,3.0033,0,0,0,6,7V18.9834l-.332.2983a5,5,0,1,0,6.664,0L12,18.9834V7A3.0033,3.0033,0,0,0,9,4Z"/><rect id="_Transparent_Rectangle_" width="32" height="32" class="cls-1" data-name="&lt;Transparent Rectangle&gt;"/></svg>