<svg xmlns="http://www.w3.org/2000/svg" id="icon" width="32" height="32" viewBox="0 0 32 32"><defs><style>.cls-1{fill:none}</style></defs><title>text--vertical-alignment</title><rect width="14" height="2" x="16" y="28"/><rect width="14" height="2" x="16" y="23"/><path d="M10.8458,30H13L8.64,20H6.36L2,30H4.1542l.8-2h5.0916ZM5.7541,26,7.5,21.6347,9.2459,26Z"/><rect width="28" height="2" x="2" y="15"/><rect width="14" height="2" x="16" y="7"/><rect width="14" height="2" x="16" y="2"/><path d="M10.8458,12H13L8.64,2H6.36L2,12H4.1542l.8-2h5.0916ZM5.7541,8,7.5,3.6347,9.2459,8Z"/><rect id="_Transparent_Rectangle_" width="32" height="32" class="cls-1" data-name="&lt;Transparent Rectangle&gt;"/></svg>