<svg xmlns="http://www.w3.org/2000/svg" id="Layer_1" width="32" height="32" data-name="Layer 1" viewBox="0 0 32 32"><defs><style>.cls-1{fill:none}</style></defs><path d="M13,30H9a2.0027,2.0027,0,0,1-2-2V20H9v8h4V20h2v8A2.0027,2.0027,0,0,1,13,30Z" transform="translate(0 0)"/><polygon points="25 20 23.25 20 21 29.031 18.792 20 17 20 19.5 30 22.5 30 25 20"/><rect width="2" height="5" x="15" y="2"/><rect width="4.958" height="2" x="21.668" y="6.854" transform="translate(1.5191 19.3744) rotate(-45)"/><rect width="5" height="2" x="25" y="15"/><rect width="5" height="2" x="2" y="15"/><rect width="2" height="4.958" x="6.854" y="5.375" transform="translate(-3.253 7.8535) rotate(-45)"/><path d="M22,17H20V16a4,4,0,0,0-8,0v1H10V16a6,6,0,0,1,12,0Z" transform="translate(0 0)"/><rect id="_Transparent_Rectangle_" width="32" height="32" class="cls-1" data-name="&lt;Transparent Rectangle&gt;"/></svg>