<svg xmlns="http://www.w3.org/2000/svg" id="icon" width="32" height="32" viewBox="0 0 32 32"><defs><style>.cls-1{fill:none}</style></defs><path id="_inner-path_" d="M14.875,11h2.25V21h-2.25ZM16,27a1.5,1.5,0,1,1,1.5-1.5A1.5,1.5,0,0,1,16,27Z" class="cls-1" data-name="&lt;inner-path&gt;"/><path d="M29.8872,28.5386l-13-25a1,1,0,0,0-1.7744,0l-13,25A1,1,0,0,0,3,30H29a1,1,0,0,0,.8872-1.4614ZM14.875,11h2.25V21h-2.25ZM16,27a1.5,1.5,0,1,1,1.5-1.5A1.5,1.5,0,0,1,16,27Z"/><rect id="_Transparent_Rectangle_" width="32" height="32" class="cls-1" data-name="&lt;Transparent Rectangle&gt;"/></svg>