<svg xmlns="http://www.w3.org/2000/svg" id="icon" width="32" height="32" viewBox="0 0 32 32"><defs><style>.cls-1{fill:none}</style></defs><path d="M16,23a1.5,1.5,0,1,0,1.5,1.5A1.5,1.5,0,0,0,16,23Z"/><rect width="2" height="9" x="15" y="12"/><path d="M29,30H3a1,1,0,0,1-.8872-1.4614l13-25a1,1,0,0,1,1.7744,0l13,25A1,1,0,0,1,29,30ZM4.6507,28H27.3493l.002-.0033L16.002,6.1714h-.004L4.6487,27.9967Z"/><rect id="_Transparent_Rectangle_" width="32" height="32" class="cls-1" data-name="&lt;Transparent Rectangle&gt;"/></svg>