<svg xmlns="http://www.w3.org/2000/svg" xmlns:xlink="http://www.w3.org/1999/xlink" id="Layer_1" x="0" y="0" version="1.1" viewBox="0 0 32 32" xml:space="preserve" style="enable-background:new 0 0 32 32"><g id="download--02"><g id="download--02_1_"><path d="M31,31.36H1c-0.199,0-0.36-0.161-0.36-0.36V12c0-0.199,0.161-0.36,0.36-0.36h8v0.72H1.36v18.28h29.28V12.36H23v-0.72h8 c0.199,0,0.36,0.161,0.36,0.36v19C31.36,31.199,31.199,31.36,31,31.36z"/><polygon points="16 25.509 9.746 19.255 10.254 18.745 15.64 24.131 15.64 1 16.36 1 16.36 24.131 21.745 18.745 22.255 19.255"/></g></g><rect id="_Transparent_Rectangle" width="32" height="32" style="fill:none"/></svg>