<svg xmlns="http://www.w3.org/2000/svg" xmlns:xlink="http://www.w3.org/1999/xlink" id="Layer_1" x="0" y="0" version="1.1" viewBox="0 0 32 32" xml:space="preserve" style="enable-background:new 0 0 32 32"><path id="stairs--down_1_" d="M31,0.64v0.72h-5.64V7c0,0.199-0.161,0.36-0.36,0.36h-5.64V13c0,0.199-0.161,0.36-0.36,0.36h-5.64V19	c0,0.199-0.161,0.36-0.36,0.36H7.36V25c0,0.199-0.161,0.36-0.36,0.36H1.36V31H0.64v-6c0-0.199,0.161-0.36,0.36-0.36h5.64V19	c0-0.199,0.161-0.36,0.36-0.36h5.64V13c0-0.199,0.161-0.36,0.36-0.36h5.64V7c0-0.199,0.161-0.36,0.36-0.36h5.64V1	c0-0.199,0.161-0.36,0.36-0.36H31z M28.745,20.745L21.36,28.13V23h-0.72v6.36H27v-0.72h-5.13l7.385-7.385L28.745,20.745z"/><rect id="_Transparent_Rectangle" width="32" height="32" style="fill:none"/></svg>