<svg xmlns="http://www.w3.org/2000/svg" id="icon" width="32" height="32" viewBox="0 0 32 32"><defs><style>.cls-1{fill:#272425}.cls-2{fill:none}</style></defs><rect width="2" height="2" x="15" y="6"/><rect width="2" height="2" x="24" y="15"/><rect width="2" height="2" x="15" y="24"/><rect width="2" height="2" x="6" y="15"/><rect width="2" height="2" x="8.586" y="8.586" transform="translate(-3.9706 9.5858) rotate(-45)"/><rect width="2" height="2" x="21.414" y="8.586" transform="translate(-0.2132 18.6569) rotate(-45)"/><rect width="2" height="2" x="21.414" y="21.414" transform="translate(-9.2843 22.4142) rotate(-45)"/><rect width="2" height="2" x="8.586" y="21.414" transform="translate(-13.0416 13.3431) rotate(-45)"/><path d="M16,22a6,6,0,1,0-6-6A6,6,0,0,0,16,22Zm0-10v8a4,4,0,0,1,0-8Z"/><path d="M28,30H4a2.0021,2.0021,0,0,1-2-2V4A2.0021,2.0021,0,0,1,4,2H28a2.0021,2.0021,0,0,1,2,2V28A2.0021,2.0021,0,0,1,28,30ZM4,4V28H28V4Z" class="cls-1"/><rect id="_Transparent_Rectangle_" width="32" height="32" class="cls-2" data-name="&lt;Transparent Rectangle&gt;"/></svg>